TITLE ""
FILE "P1Q_t_0629-0638.mp3" MP3
  TRACK 01 AUDIO
    TITLE "P1Q_t_0629-0638_01"
    INDEX 01 00:00:00
  TRACK 02 AUDIO
    TITLE "P1Q_t_0629-0638_02"
    INDEX 01 00:00:10
  TRACK 03 AUDIO
    TITLE "P1Q_t_0629-0638_03"
    INDEX 01 00:01:27
  TRACK 04 AUDIO
    TITLE "P1Q_t_0629-0638_04"
    INDEX 01 00:01:51
  TRACK 05 AUDIO
    TITLE "P1Q_t_0629-0638_05"
    INDEX 01 00:04:30
  TRACK 06 AUDIO
    TITLE "P1Q_t_0629-0638_06"
    INDEX 01 00:04:49
  TRACK 07 AUDIO
    TITLE "P1Q_t_0629-0638_07"
    INDEX 01 00:09:70
  TRACK 08 AUDIO
    TITLE "P1Q_t_0629-0638_08"
    INDEX 01 00:10:48
  TRACK 09 AUDIO
    TITLE "P1Q_t_0629-0638_09"
    INDEX 01 00:11:65
  TRACK 10 AUDIO
    TITLE "P1Q_t_0629-0638_10"
    INDEX 01 00:12:12
  TRACK 11 AUDIO
    TITLE "P1Q_t_0629-0638_11"
    INDEX 01 00:13:13
  TRACK 12 AUDIO
    TITLE "P1Q_t_0629-0638_12"
    INDEX 01 00:13:33
  TRACK 13 AUDIO
    TITLE "P1Q_t_0629-0638_13"
    INDEX 01 00:19:04
  TRACK 14 AUDIO
    TITLE "P1Q_t_0629-0638_14"
    INDEX 01 00:19:49
  TRACK 15 AUDIO
    TITLE "P1Q_t_0629-0638_15"
    INDEX 01 00:20:66
  TRACK 16 AUDIO
    TITLE "P1Q_t_0629-0638_16"
    INDEX 01 00:21:14
  TRACK 17 AUDIO
    TITLE "P1Q_t_0629-0638_17"
    INDEX 01 00:23:23
  TRACK 18 AUDIO
    TITLE "P1Q_t_0629-0638_18"
    INDEX 01 00:23:43
  TRACK 19 AUDIO
    TITLE "P1Q_t_0629-0638_19"
    INDEX 01 00:28:54
  TRACK 20 AUDIO
    TITLE "P1Q_t_0629-0638_20"
    INDEX 01 00:29:26
  TRACK 21 AUDIO
    TITLE "P1Q_t_0629-0638_21"
    INDEX 01 00:30:33
  TRACK 22 AUDIO
    TITLE "P1Q_t_0629-0638_22"
    INDEX 01 00:30:54
  TRACK 23 AUDIO
    TITLE "P1Q_t_0629-0638_23"
    INDEX 01 00:34:43
  TRACK 24 AUDIO
    TITLE "P1Q_t_0629-0638_24"
    INDEX 01 00:34:60
  TRACK 25 AUDIO
    TITLE "P1Q_t_0629-0638_25"
    INDEX 01 00:38:54
  TRACK 26 AUDIO
    TITLE "P1Q_t_0629-0638_26"
    INDEX 01 00:39:24
  TRACK 27 AUDIO
    TITLE "P1Q_t_0629-0638_27"
    INDEX 01 00:40:49
  TRACK 28 AUDIO
    TITLE "P1Q_t_0629-0638_28"
    INDEX 01 00:40:73
  TRACK 29 AUDIO
    TITLE "P1Q_t_0629-0638_29"
    INDEX 01 00:44:17
  TRACK 30 AUDIO
    TITLE "P1Q_t_0629-0638_30"
    INDEX 01 00:44:37
  TRACK 31 AUDIO
    TITLE "P1Q_t_0629-0638_31"
    INDEX 01 00:49:03
  TRACK 32 AUDIO
    TITLE "P1Q_t_0629-0638_32"
    INDEX 01 00:49:50
  TRACK 33 AUDIO
    TITLE "P1Q_t_0629-0638_33"
    INDEX 01 00:50:61
  TRACK 34 AUDIO
    TITLE "P1Q_t_0629-0638_34"
    INDEX 01 00:51:08
  TRACK 35 AUDIO
    TITLE "P1Q_t_0629-0638_35"
    INDEX 01 00:52:17
  TRACK 36 AUDIO
    TITLE "P1Q_t_0629-0638_36"
    INDEX 01 00:52:36
  TRACK 37 AUDIO
    TITLE "P1Q_t_0629-0638_37"
    INDEX 01 00:57:30
  TRACK 38 AUDIO
    TITLE "P1Q_t_0629-0638_38"
    INDEX 01 00:58:06
  TRACK 39 AUDIO
    TITLE "P1Q_t_0629-0638_39"
    INDEX 01 00:59:23
  TRACK 40 AUDIO
    TITLE "P1Q_t_0629-0638_40"
    INDEX 01 00:59:42
  TRACK 41 AUDIO
    TITLE "P1Q_t_0629-0638_41"
    INDEX 01 01:00:48
  TRACK 42 AUDIO
    TITLE "P1Q_t_0629-0638_42"
    INDEX 01 01:00:67
  TRACK 43 AUDIO
    TITLE "P1Q_t_0629-0638_43"
    INDEX 01 01:05:57
  TRACK 44 AUDIO
    TITLE "P1Q_t_0629-0638_44"
    INDEX 01 01:06:29
  TRACK 45 AUDIO
    TITLE "P1Q_t_0629-0638_45"
    INDEX 01 01:07:32
  TRACK 46 AUDIO
    TITLE "P1Q_t_0629-0638_46"
    INDEX 01 01:07:56
  TRACK 47 AUDIO
    TITLE "P1Q_t_0629-0638_47"
    INDEX 01 01:10:34
  TRACK 48 AUDIO
    TITLE "P1Q_t_0629-0638_48"
    INDEX 01 01:10:56
  TRACK 49 AUDIO
    TITLE "P1Q_t_0629-0638_49"
    INDEX 01 01:16:06
  TRACK 50 AUDIO
    TITLE "P1Q_t_0629-0638_50"
    INDEX 01 01:16:51
  TRACK 51 AUDIO
    TITLE "P1Q_t_0629-0638_51"
    INDEX 01 01:17:70
  TRACK 52 AUDIO
    TITLE "P1Q_t_0629-0638_52"
    INDEX 01 01:18:16
  TRACK 53 AUDIO
    TITLE "P1Q_t_0629-0638_53"
    INDEX 01 01:20:49
  TRACK 54 AUDIO
    TITLE "P1Q_t_0629-0638_54"
    INDEX 01 01:20:66
  TRACK 55 AUDIO
    TITLE "P1Q_t_0629-0638_55"
    INDEX 01 01:26:61
  TRACK 56 AUDIO
    TITLE "P1Q_t_0629-0638_56"
    INDEX 01 01:27:35
  TRACK 57 AUDIO
    TITLE "P1Q_t_0629-0638_57"
    INDEX 01 01:28:48
  TRACK 58 AUDIO
    TITLE "P1Q_t_0629-0638_58"
    INDEX 01 01:28:68
  TRACK 59 AUDIO
    TITLE "P1Q_t_0629-0638_59"
    INDEX 01 01:32:36
  TRACK 60 AUDIO
    TITLE "P1Q_t_0629-0638_60"
    INDEX 01 01:32:58
  TRACK 61 AUDIO
    TITLE "P1Q_t_0629-0638_61"
    INDEX 01 01:37:41
